<svg xmlns="http://www.w3.org/2000/svg" viewBox="0 0 793.6 146.6"><g transform="translate(-8.2 -35.7)"><g transform="translate(0.749 180.346)"><path d="M 66.21875 -68.84375 C 85.300781 -50.507812 98.832031 -36.726562 106.8125 -27.5 C 110.925781 -22.882812 112.984375 -18.984375 112.984375 -15.796875 C 112.984375 -12.617188 110.488281 -8.878906 105.5 -4.578125 C 100.507812 -0.273438 96.425781 1.875 93.25 1.875 C 90.070312 1.875 86.238281 -0.742188 81.75 -5.984375 L 40.59375 -52.9375 L 40.59375 -16.46875 C 40.59375 -13.46875 40.5 -11.28125 40.3125 -9.90625 C 40.125 -8.539062 39.53125 -6.921875 38.53125 -5.046875 C 36.789062 -1.679688 31.925781 0 23.9375 0 C 15.207031 0 10.097656 -2.367188 8.609375 -7.109375 C 7.859375 -9.097656 7.484375 -12.28125 7.484375 -16.65625 L 7.484375 -120.65625 C 7.484375 -123.519531 7.578125 -125.671875 7.765625 -127.109375 C 7.953125 -128.546875 8.546875 -130.195312 9.546875 -132.0625 C 11.285156 -135.425781 16.144531 -137.109375 24.125 -137.109375 C 32.851562 -137.109375 38.03125 -134.804688 39.65625 -130.203125 C 40.28125 -128.078125 40.59375 -124.832031 40.59375 -120.46875 L 40.59375 -84.734375 C 57.550781 -103.816406 71.269531 -119.46875 81.75 -131.6875 C 86.113281 -136.800781 89.914062 -139.359375 93.15625 -139.359375 C 96.394531 -139.359375 100.507812 -137.207031 105.5 -132.90625 C 110.488281 -128.601562 112.984375 -124.863281 112.984375 -121.6875 C 112.984375 -118.507812 111.113281 -114.734375 107.375 -110.359375 C 100.144531 -102.003906 88.921875 -90.535156 73.703125 -75.953125 Z M 66.21875 -68.84375" fill="#FFFFFF"/></g><g transform="translate(112.795 180.346)"><path d="M 71.453125 -88.109375 C 72.203125 -95.085938 77.128906 -98.578125 86.234375 -98.578125 C 91.097656 -98.578125 94.710938 -98.203125 97.078125 -97.453125 C 99.453125 -96.710938 101.109375 -95.40625 102.046875 -93.53125 C 102.984375 -91.65625 103.539062 -90 103.71875 -88.5625 C 103.90625 -87.132812 104 -84.988281 104 -82.125 L 104 -16.65625 C 104 -13.78125 103.90625 -11.625 103.71875 -10.1875 C 103.539062 -8.757812 103.015625 -7.109375 102.140625 -5.234375 C 100.390625 -1.992188 96.113281 -0.375 89.3125 -0.375 C 82.519531 -0.375 77.96875 -1.210938 75.65625 -2.890625 C 73.351562 -4.578125 72.015625 -7.039062 71.640625 -10.28125 C 67.023438 -3.675781 59.320312 -0.375 48.53125 -0.375 C 37.75 -0.375 27.742188 -5.300781 18.515625 -15.15625 C 9.285156 -25.007812 4.671875 -36.453125 4.671875 -49.484375 C 4.671875 -62.515625 9.316406 -73.921875 18.609375 -83.703125 C 27.898438 -93.492188 38.097656 -98.390625 49.203125 -98.390625 C 53.441406 -98.390625 57.304688 -97.640625 60.796875 -96.140625 C 64.285156 -94.648438 66.71875 -93.25 68.09375 -91.9375 C 69.46875 -90.632812 70.585938 -89.359375 71.453125 -88.109375 Z M 37.40625 -49.203125 C 37.40625 -45.085938 39.023438 -41.375 42.265625 -38.0625 C 45.515625 -34.757812 49.445312 -33.109375 54.0625 -33.109375 C 58.675781 -33.109375 62.507812 -34.789062 65.5625 -38.15625 C 68.625 -41.53125 70.15625 -45.242188 70.15625 -49.296875 C 70.15625 -53.347656 68.6875 -57.117188 65.75 -60.609375 C 62.820312 -64.097656 58.894531 -65.84375 53.96875 -65.84375 C 49.039062 -65.84375 45.046875 -64.097656 41.984375 -60.609375 C 38.929688 -57.117188 37.40625 -53.316406 37.40625 -49.203125 Z M 37.40625 -49.203125" fill="#FFFFFF"/></g><g transform="translate(224.28 180.346)"><path d="M 8.234375 -8.796875 C 5.859375 -10.285156 4.671875 -12.648438 4.671875 -15.890625 C 4.671875 -19.140625 7.039062 -24.066406 11.78125 -30.671875 C 13.15625 -32.796875 15.367188 -33.859375 18.421875 -33.859375 C 21.484375 -33.859375 25.628906 -32.328125 30.859375 -29.265625 C 36.097656 -26.210938 40.835938 -24.6875 45.078125 -24.6875 C 52.691406 -24.6875 56.5 -26.1875 56.5 -29.1875 C 56.5 -31.550781 52.316406 -33.296875 43.953125 -34.421875 C 36.097656 -35.546875 28.304688 -38.476562 20.578125 -43.21875 C 16.960938 -45.457031 13.96875 -48.976562 11.59375 -53.78125 C 9.226562 -58.582031 8.046875 -64.285156 8.046875 -70.890625 C 8.046875 -90.597656 21.578125 -100.453125 48.640625 -100.453125 C 57.492188 -100.453125 66.597656 -98.332031 75.953125 -94.09375 C 80.316406 -92.09375 82.5 -89.597656 82.5 -86.609375 C 82.5 -83.617188 81.125 -79.941406 78.375 -75.578125 C 75.632812 -71.210938 72.832031 -69.03125 69.96875 -69.03125 C 68.46875 -69.03125 65.691406 -69.960938 61.640625 -71.828125 C 57.585938 -73.703125 53.191406 -74.640625 48.453125 -74.640625 C 41.085938 -74.640625 37.40625 -73.265625 37.40625 -70.515625 C 37.40625 -66.773438 41.644531 -64.347656 50.125 -63.234375 C 58.363281 -62.359375 66.347656 -59.988281 74.078125 -56.125 C 77.691406 -54.375 80.710938 -51.347656 83.140625 -47.046875 C 85.578125 -42.742188 86.796875 -37.347656 86.796875 -30.859375 C 86.796875 -24.378906 85.578125 -18.863281 83.140625 -14.3125 C 80.710938 -9.757812 77.316406 -6.359375 72.953125 -4.109375 C 64.972656 -0.242188 54.960938 1.6875 42.921875 1.6875 C 30.890625 1.6875 19.328125 -1.804688 8.234375 -8.796875 Z M 8.234375 -8.796875" fill="#FFFFFF"/></g><g transform="translate(315.75 180.346)"><path d="M 7.484375 -82.125 C 7.484375 -84.988281 7.578125 -87.132812 7.765625 -88.5625 C 7.953125 -90 8.484375 -91.65625 9.359375 -93.53125 C 11.097656 -96.769531 15.957031 -98.390625 23.9375 -98.390625 C 29.925781 -98.390625 34.171875 -97.332031 36.671875 -95.21875 C 38.785156 -93.46875 39.90625 -90.785156 40.03125 -87.171875 C 40.15625 -85.921875 40.21875 -84.113281 40.21875 -81.75 L 40.21875 -16.28125 C 40.21875 -13.40625 40.125 -11.25 39.9375 -9.8125 C 39.75 -8.382812 39.15625 -6.734375 38.15625 -4.859375 C 36.539062 -1.617188 31.738281 0 23.75 0 C 15.894531 0 11.097656 -1.679688 9.359375 -5.046875 C 8.484375 -6.921875 7.953125 -8.539062 7.765625 -9.90625 C 7.578125 -11.28125 7.484375 -13.46875 7.484375 -16.46875 Z M 38.25 -116.8125 C 37.3125 -115.007812 35.660156 -113.734375 33.296875 -112.984375 C 30.929688 -112.234375 27.78125 -111.859375 23.84375 -111.859375 C 19.914062 -111.859375 16.765625 -112.234375 14.390625 -112.984375 C 12.023438 -113.734375 10.375 -115.039062 9.4375 -116.90625 C 8.507812 -118.78125 7.953125 -120.429688 7.765625 -121.859375 C 7.578125 -123.296875 7.484375 -125.445312 7.484375 -128.3125 C 7.484375 -131.1875 7.578125 -133.34375 7.765625 -134.78125 C 7.953125 -136.21875 8.484375 -137.804688 9.359375 -139.546875 C 11.097656 -142.910156 15.957031 -144.59375 23.9375 -144.59375 C 31.800781 -144.59375 36.539062 -142.910156 38.15625 -139.546875 C 39.15625 -137.679688 39.75 -136.03125 39.9375 -134.59375 C 40.125 -133.15625 40.21875 -131 40.21875 -128.125 C 40.21875 -125.257812 40.125 -123.109375 39.9375 -121.671875 C 39.75 -120.242188 39.1875 -118.625 38.25 -116.8125 Z M 38.25 -116.8125" fill="#FFFFFF"/></g><g transform="translate(363.471 180.346)"><path d="M 78.9375 -82.6875 L 111.859375 -82.6875 C 118.597656 -82.4375 122.710938 -80.6875 124.203125 -77.4375 C 125.453125 -75.070312 126.078125 -71.582031 126.078125 -66.96875 L 126.078125 -25.8125 C 126.078125 -21.820312 124.332031 -18.019531 120.84375 -14.40625 C 110.363281 -3.550781 94.648438 1.875 73.703125 1.875 C 55.117188 1.875 38.96875 -5.140625 25.25 -19.171875 C 11.53125 -33.203125 4.671875 -50.128906 4.671875 -69.953125 C 4.671875 -89.785156 11.65625 -106.34375 25.625 -119.625 C 39.59375 -132.90625 56.054688 -139.546875 75.015625 -139.546875 C 89.722656 -139.546875 103.628906 -134.679688 116.734375 -124.953125 C 120.097656 -122.460938 121.78125 -119.6875 121.78125 -116.625 C 121.78125 -113.570312 120.34375 -110.050781 117.46875 -106.0625 C 112.613281 -99.457031 108.1875 -96.15625 104.1875 -96.15625 C 101.820312 -96.15625 98.019531 -97.867188 92.78125 -101.296875 C 87.539062 -104.722656 81.304688 -106.4375 74.078125 -106.4375 C 64.597656 -106.4375 56.175781 -103.097656 48.8125 -96.421875 C 41.457031 -89.753906 37.78125 -81.023438 37.78125 -70.234375 C 37.78125 -59.453125 41.519531 -50.285156 49 -42.734375 C 56.488281 -35.191406 64.972656 -31.421875 74.453125 -31.421875 C 81.304688 -31.421875 87.476562 -32.546875 92.96875 -34.796875 L 92.96875 -55.1875 L 78.1875 -55.1875 C 74.320312 -55.1875 71.578125 -55.679688 69.953125 -56.671875 C 68.335938 -57.671875 67.28125 -59.132812 66.78125 -61.0625 C 66.28125 -63 66.03125 -65.617188 66.03125 -68.921875 C 66.03125 -72.234375 66.3125 -74.882812 66.875 -76.875 C 67.4375 -78.875 68.46875 -80.25 69.96875 -81 C 72.207031 -82.125 75.195312 -82.6875 78.9375 -82.6875 Z M 78.9375 -82.6875" fill="#6CB619"/></g><g transform="translate(497.029 180.346)"><path d="M 51.25 -0.375 C 38.65625 -0.375 28.210938 -5.144531 19.921875 -14.6875 C 11.628906 -24.226562 7.484375 -35.859375 7.484375 -49.578125 L 7.484375 -82.3125 C 7.484375 -85.300781 7.578125 -87.476562 7.765625 -88.84375 C 7.953125 -90.21875 8.484375 -91.84375 9.359375 -93.71875 C 11.097656 -97.082031 15.957031 -98.765625 23.9375 -98.765625 C 32.664062 -98.765625 37.78125 -96.394531 39.28125 -91.65625 C 40.03125 -89.664062 40.40625 -86.488281 40.40625 -82.125 L 40.40625 -49.390625 C 40.40625 -44.273438 41.867188 -40.28125 44.796875 -37.40625 C 47.734375 -34.539062 51.660156 -33.109375 56.578125 -33.109375 C 61.503906 -33.109375 65.492188 -34.601562 68.546875 -37.59375 C 71.609375 -40.59375 73.140625 -44.523438 73.140625 -49.390625 L 73.140625 -82.5 C 73.140625 -85.363281 73.234375 -87.507812 73.421875 -88.9375 C 73.609375 -90.375 74.203125 -92.03125 75.203125 -93.90625 C 76.816406 -97.144531 81.617188 -98.765625 89.609375 -98.765625 C 97.460938 -98.765625 102.257812 -97.082031 104 -93.71875 C 104.875 -91.84375 105.40625 -90.1875 105.59375 -88.75 C 105.78125 -87.320312 105.875 -85.175781 105.875 -82.3125 L 105.875 -16.09375 C 105.875 -13.34375 105.78125 -11.25 105.59375 -9.8125 C 105.40625 -8.382812 104.8125 -6.796875 103.8125 -5.046875 C 101.945312 -1.804688 97.148438 -0.1875 89.421875 -0.1875 C 81.804688 -0.1875 77.128906 -1.679688 75.390625 -4.671875 C 74.140625 -6.796875 73.515625 -9.351562 73.515625 -12.34375 C 73.015625 -11.46875 71.890625 -10.21875 70.140625 -8.59375 C 68.398438 -6.976562 66.71875 -5.609375 65.09375 -4.484375 C 60.851562 -1.742188 56.238281 -0.375 51.25 -0.375 Z M 51.25 -0.375" fill="#6CB619"/></g><g transform="translate(610.385 180.346)"><path d="M 74.4375 -97.453125 C 76.8125 -96.710938 78.78125 -95.4375 80.34375 -93.625 C 81.90625 -91.8125 82.6875 -88.910156 82.6875 -84.921875 C 82.6875 -80.929688 81.5 -76.566406 79.125 -71.828125 C 76.757812 -67.085938 73.332031 -64.71875 68.84375 -64.71875 C 66.59375 -64.71875 64.4375 -65.21875 62.375 -66.21875 C 60.320312 -67.21875 57.613281 -67.71875 54.25 -67.71875 C 50.882812 -67.71875 47.734375 -66.53125 44.796875 -64.15625 C 41.867188 -61.789062 40.40625 -58.925781 40.40625 -55.5625 L 40.40625 -16.28125 C 40.40625 -13.40625 40.3125 -11.25 40.125 -9.8125 C 39.9375 -8.382812 39.34375 -6.734375 38.34375 -4.859375 C 36.476562 -1.617188 31.613281 0 23.75 0 C 17.769531 0 13.46875 -1.0625 10.84375 -3.1875 C 8.851562 -4.925781 7.734375 -7.601562 7.484375 -11.21875 C 7.484375 -12.46875 7.484375 -14.28125 7.484375 -16.65625 L 7.484375 -82.3125 C 7.484375 -85.175781 7.578125 -87.320312 7.765625 -88.75 C 7.953125 -90.1875 8.484375 -91.78125 9.359375 -93.53125 C 11.097656 -96.894531 15.957031 -98.578125 23.9375 -98.578125 C 31.425781 -98.578125 36.101562 -97.144531 37.96875 -94.28125 C 39.34375 -92.28125 40.03125 -90.222656 40.03125 -88.109375 C 40.65625 -88.984375 41.554688 -90.039062 42.734375 -91.28125 C 43.921875 -92.53125 46.445312 -94.210938 50.3125 -96.328125 C 54.1875 -98.453125 57.585938 -99.515625 60.515625 -99.515625 C 63.441406 -99.515625 65.898438 -99.359375 67.890625 -99.046875 C 69.890625 -98.734375 72.070312 -98.203125 74.4375 -97.453125 Z M 74.4375 -97.453125" fill="#6CB619"/></g><g transform="translate(695.869 180.346)"><path d="M 51.25 -0.375 C 38.65625 -0.375 28.210938 -5.144531 19.921875 -14.6875 C 11.628906 -24.226562 7.484375 -35.859375 7.484375 -49.578125 L 7.484375 -82.3125 C 7.484375 -85.300781 7.578125 -87.476562 7.765625 -88.84375 C 7.953125 -90.21875 8.484375 -91.84375 9.359375 -93.71875 C 11.097656 -97.082031 15.957031 -98.765625 23.9375 -98.765625 C 32.664062 -98.765625 37.78125 -96.394531 39.28125 -91.65625 C 40.03125 -89.664062 40.40625 -86.488281 40.40625 -82.125 L 40.40625 -49.390625 C 40.40625 -44.273438 41.867188 -40.28125 44.796875 -37.40625 C 47.734375 -34.539062 51.660156 -33.109375 56.578125 -33.109375 C 61.503906 -33.109375 65.492188 -34.601562 68.546875 -37.59375 C 71.609375 -40.59375 73.140625 -44.523438 73.140625 -49.390625 L 73.140625 -82.5 C 73.140625 -85.363281 73.234375 -87.507812 73.421875 -88.9375 C 73.609375 -90.375 74.203125 -92.03125 75.203125 -93.90625 C 76.816406 -97.144531 81.617188 -98.765625 89.609375 -98.765625 C 97.460938 -98.765625 102.257812 -97.082031 104 -93.71875 C 104.875 -91.84375 105.40625 -90.1875 105.59375 -88.75 C 105.78125 -87.320312 105.875 -85.175781 105.875 -82.3125 L 105.875 -16.09375 C 105.875 -13.34375 105.78125 -11.25 105.59375 -9.8125 C 105.40625 -8.382812 104.8125 -6.796875 103.8125 -5.046875 C 101.945312 -1.804688 97.148438 -0.1875 89.421875 -0.1875 C 81.804688 -0.1875 77.128906 -1.679688 75.390625 -4.671875 C 74.140625 -6.796875 73.515625 -9.351562 73.515625 -12.34375 C 73.015625 -11.46875 71.890625 -10.21875 70.140625 -8.59375 C 68.398438 -6.976562 66.71875 -5.609375 65.09375 -4.484375 C 60.851562 -1.742188 56.238281 -0.375 51.25 -0.375 Z M 51.25 -0.375" fill="#6CB619"/></g></g></svg>